<svg id="Capa_1" data-name="Capa 1" xmlns="http://www.w3.org/2000/svg" viewBox="0 0 500 500"><defs><style>.cls-1{fill:#07a280;}</style></defs><path class="cls-1" d="M404.29,120.27a27.44,27.44,0,1,1-27.44-27.44A27.45,27.45,0,0,1,404.29,120.27Zm-34.17,123A115.26,115.26,0,1,1,254.87,128,115.39,115.39,0,0,1,370.12,243.27Zm-41.42,0a73.84,73.84,0,1,0-73.83,73.84A73.93,73.93,0,0,0,328.7,243.27Zm159.45-92.59A140.58,140.58,0,0,0,347.57,10.1H155.73A140.59,140.59,0,0,0,15.14,150.68V342.53A140.59,140.59,0,0,0,155.73,483.11H347.57A140.58,140.58,0,0,0,488.15,342.53ZM442,340.41A96.56,96.56,0,0,1,345.45,437H157.85a96.56,96.56,0,0,1-96.56-96.56V152.8a96.55,96.55,0,0,1,96.56-96.55h187.6A96.55,96.55,0,0,1,442,152.8Z"/></svg>