<svg id="Capa_1" data-name="Capa 1" xmlns="http://www.w3.org/2000/svg" viewBox="0 0 500 500"><defs><style>.cls-1{fill:none;stroke:#04a280;stroke-miterlimit:10;stroke-width:43px;}.cls-2{fill:#07a280;fill-rule:evenodd;}</style></defs><path class="cls-1" d="M467.28,161.87A129.16,129.16,0,0,0,338.12,32.71H161.88A129.16,129.16,0,0,0,32.72,161.87V338.13A129.16,129.16,0,0,0,161.88,467.29H338.12A129.16,129.16,0,0,0,467.28,338.13Z"/><path class="cls-2" d="M211.89,251.16V393a3.69,3.69,0,0,0,3.69,3.69h52.67a3.69,3.69,0,0,0,3.69-3.69V248.84h38.19a3.68,3.68,0,0,0,3.68-3.38L317.48,202a3.69,3.69,0,0,0-3.68-4H271.94V167.21A13.08,13.08,0,0,1,285,154.14h29.43a3.7,3.7,0,0,0,3.69-3.7V107a3.69,3.69,0,0,0-3.69-3.69H264.72a52.83,52.83,0,0,0-52.83,52.83V198H185.55a3.69,3.69,0,0,0-3.69,3.69v43.43a3.69,3.69,0,0,0,3.69,3.69h26.34Z"/></svg>